# xmcd
#
# Track frame offsets:
#	150
#	17816
#	32778
#	48424
#	66162
#	88742
#	105040
#	117515
#	134296
#	154365
#	176356
#	191638
#
# Disc length: 2734 seconds
#
# Revision: 1
# Processed by: cddbd v1.5.2PL0 Copyright (c) Steve Scherf et al.
# Submitted via: audiograbber 1.81.02
#
DISCID=9d0aac0c
DTITLE=Charlie Daniels - The Ultimate Collection CD1
DYEAR=2006
DGENRE=Country
TTITLE0=Amazing Grace
TTITLE1=In The Garden
TTITLE2=Softly And Tenderly
TTITLE3=Abide With Me
TTITLE4=Just A Closer Walk With Thee
TTITLE5=Nothing But The Blood
TTITLE6=Are You Washed In The Blood?
TTITLE7=The Old Rugged Cross
TTITLE8=What A Friend We Have In Jesus
TTITLE9=Blessed Assurance
TTITLE10=In The Sweet By And By
TTITLE11=There Is Power In The Blood
EXTD=
EXTT0=
EXTT1=
EXTT2=
EXTT3=
EXTT4=
EXTT5=
EXTT6=
EXTT7=
EXTT8=
EXTT9=
EXTT10=
EXTT11=
PLAYORDER=
